<svg width="2588" height="2424" viewBox="0 0 2588 2424" fill="none" xmlns="http://www.w3.org/2000/svg">
<path fill-rule="evenodd" clip-rule="evenodd" d="M1530.63 1636.2C1504.46 1631.02 1461.97 1610.56 1441.3 1589.02C1438.98 1586.58 1464.8 1660.65 1409.16 1677.55C1359.03 1692.76 1258.04 1631.17 1237.6 1617.16C1157.22 1561.98 1052.39 1462.44 1082.02 1466.82C1102.98 1469.92 1153.58 1499.23 1262.53 1491.38C1337.03 1486.02 1399.52 1447.94 1408.38 1441.22C1408.38 1441.22 1462.23 1406.45 1481.47 1373.58C1481.47 1373.58 1540.58 1309.05 1547.13 1209.33C1554.04 1103.97 1537.14 1046.84 1535.15 1038.32C1513.97 948.167 1454.42 901.361 1451.31 898.208C1361.98 807.768 1270.43 785.493 1270.43 785.493C1166.35 756.862 1045.27 746.76 935.551 805.106C868.544 840.731 855.359 844.061 805.964 873.789C785.104 886.339 734.405 916.257 737.968 893.547C743.012 861.246 766.515 816.628 780.791 792.721C818.368 729.783 865.543 678.776 922.138 639.09C1075.54 531.52 1259.16 483.755 1399.45 502.006C1468.97 511.049 1519.69 524.633 1523.13 567.448C1524.5 584.633 1508.86 607.039 1509.78 606.957C1577.75 601.527 1605.72 602.442 1658.63 614.626C1722 629.213 1775.01 661.043 1814.65 706.563C1841.01 736.884 1846.7 784.138 1838.3 808.468C1817.99 867.439 1796.84 869.066 1797.13 869.003C1820.03 864.248 1833.98 865.578 1847.25 868.025C1871.67 872.547 1885.3 883.457 1888.42 885.33C1906.91 896.537 1942.27 933.612 1966.08 977.656C1986.73 1015.82 1994.45 1062.11 1986.31 1107.43C1977.57 1156.1 1960.5 1179.34 1942.96 1192.27C1929.73 1202.03 1920.43 1209.47 1888.56 1218.25C1888.44 1218.29 1925.03 1251.41 1939.57 1273.68C1954.88 1297.11 1967.9 1329.72 1951.9 1399.12C1939.71 1452.09 1884.58 1495.7 1838.52 1508.66C1769.31 1528.14 1709.99 1503.09 1710.88 1503.8C1752.64 1536.86 1740.75 1584.11 1697.53 1617.65C1661.84 1645.31 1572.63 1644.53 1530.63 1636.2Z" fill="#019393"/>
<path fill-rule="evenodd" clip-rule="evenodd" d="M1380.16 2422.88C1380.16 2419.87 1402.43 2311.94 1252.58 2178.81C1118.82 2059.95 1012.55 2025.26 834.31 2011.44C793.839 2008.3 724.814 2014.48 739.911 2001.75C755.001 1989.01 776.945 1983.41 808.715 1963.81C873.912 1923.59 939.027 1869.87 957.869 1831.83C990.25 1766.46 982.027 1720.17 988.736 1654.38C990.502 1637.13 1001.8 1566.33 1001.8 1566.33C1001.8 1566.33 1010.35 1510.43 1028.87 1510.99C1060.85 1511.94 1072.35 1537.1 1110.51 1572.22C1150.99 1609.49 1192.35 1642.99 1244.55 1678.2C1292.57 1710.61 1341.11 1729.37 1375.21 1735.91C1425.35 1745.54 1466.33 1740.96 1484.23 1718.26C1489.75 1711.27 1505.96 1694.29 1506.09 1666.77C1506.09 1665.75 1552.26 1686.88 1576.41 1690.2C1595.81 1692.87 1654.43 1696.5 1702.8 1678.91C1715.83 1674.17 1750.76 1673.35 1779.35 1630.59C1810.36 1584.22 1794.24 1548.09 1794.24 1548.09C1794.24 1548.09 1829.18 1558.15 1853.84 1553.88C1926.15 1541.3 1980.8 1496.52 2010.98 1421.99C2018.27 1404 2021.93 1368.29 2021.43 1332.03C2021.05 1304.48 2018.37 1278.65 2003.86 1252.71C1992.03 1231.55 1973.85 1219.23 1973.85 1219.23C1973.82 1219.3 2006.62 1206.52 2023.21 1177.92C2063.15 1109.02 2080.25 1004.01 2007.79 911.319C1982.68 879.2 1957.34 859.417 1932.25 846.558C1908.75 834.513 1884.08 828.692 1884.08 828.692C1884.08 828.692 1900.55 799.544 1898.81 766.335C1892.05 637.898 1786.45 580.273 1636.48 560.622C1606.93 556.756 1570.17 574.067 1570.17 574.067C1570.17 574.067 1595.85 530.912 1585.4 507.9C1578.38 492.406 1560.82 483.968 1550.97 481.899C1536.37 478.828 1528.49 478.311 1519.57 478.273C1508.62 478.254 1498.69 476.797 1493.52 474.262C1460.92 458.168 1585.14 416.72 1611.16 400.456C1631.71 387.598 1643.41 384.087 1703.44 313.442C1714.66 300.218 1755.46 235.773 1779.28 179.154C1796.26 138.774 1814.26 74.2723 1831.27 26.6024C1855.25 -40.6427 1947.67 36.8061 1971.19 70.3435C1998.66 109.5 2028.36 185.132 1990.45 334.991C1963.38 442.011 1901.17 503.038 1911.09 512.245C1919.24 519.813 1965.22 492.563 1993.42 456.787C2048.86 386.452 2108.71 260.147 2122.37 225.058C2161.27 125.159 2245.43 207.974 2276.2 281.797C2293.38 322.997 2306.34 396.151 2280.85 517.36C2251.11 658.773 2219.07 685.758 2196.18 720.588C2153.44 785.594 2103.15 809.042 2112.58 821.49C2126.45 839.747 2185.59 797.192 2212.91 773.171C2261.75 730.243 2289.07 695.93 2334.84 637.255C2397.78 556.624 2465.62 696.226 2471.16 797.4C2473.95 848.4 2445.23 966.91 2374.72 1045.2C2267.15 1164.65 2198.07 1137.3 2209.27 1163.57C2218.93 1186.27 2292.39 1172.35 2349.16 1154.55C2434.79 1127.73 2441.67 1111.36 2494.56 1103.11C2596.17 1087.26 2569.78 1251.13 2538.9 1311.6C2519.47 1349.7 2469.26 1389.15 2431.62 1405.46C2329.9 1449.46 2236.27 1412.7 2242.17 1444.01C2246.32 1465.91 2308.98 1471.93 2338.15 1476.57C2408.38 1487.81 2466.15 1506.04 2479.42 1545.26C2496.32 1595.12 2477.92 1651.66 2437.66 1676.12C2387.13 1706.83 2286.08 1672.92 2289.44 1675.2C2395 1746.66 2482.2 1915.25 2524.46 2050.67C2566.57 2185.59 2587.16 2422.87 2587.16 2422.87H2181.85V2235.62L2238.6 2169.4C2238.6 2169.4 2272.74 2184.03 2295.36 2182.01C2319.51 2179.86 2334.36 2173.32 2352.11 2156.79C2368.65 2141.38 2375.03 2128.28 2380.49 2106.34C2386.44 2082.4 2386.34 2066.23 2377.33 2043.27C2367.77 2018.91 2355.94 2005.78 2333.19 1992.82C2311.37 1980.39 2295.03 1976.9 2270.13 1980.21C2242.27 1983.92 2225.51 1993.68 2207.07 2014.89C2190.42 2034.05 2183.04 2049.45 2181.85 2074.81C2180.78 2097.79 2197.61 2131.56 2197.61 2131.56L2125.1 2213.55V2422.87H2011.59V2040.12C2011.59 2040.12 2052.6 2023.77 2068.34 2002.28C2084.23 1980.59 2089.17 1962.89 2087.26 1936.06C2085.22 1907.5 2076.46 1889.61 2055.73 1869.85C2034.55 1849.65 2015.63 1841.47 1986.37 1841.47C1957.1 1841.47 1938.18 1849.65 1917 1869.85C1896.27 1889.61 1887.51 1907.5 1885.47 1936.06C1883.56 1962.89 1888.81 1980.35 1904.39 2002.28C1918.65 2022.36 1954.84 2040.12 1954.84 2040.12V2422.87H1853.94V2213.55L1787.73 2137.87C1787.73 2137.87 1800.03 2098.82 1794.04 2074.81C1789.22 2055.54 1782.55 2044.99 1768.81 2030.66C1753.91 2015.11 1742.35 2007.77 1721.52 2002.28C1702.47 1997.26 1690.16 1997.43 1671.07 2002.28C1645.25 2008.84 1630.01 2018.59 1614.32 2040.12C1599.86 2059.95 1595.2 2075.5 1595.4 2100.03C1595.57 2121.85 1599.43 2135.23 1611.16 2153.64C1627.32 2178.99 1644.78 2191.7 1674.22 2197.78C1703.78 2203.88 1749.89 2182.01 1749.89 2182.01L1797.19 2235.62V2422.88H1380.16Z" fill="#01484E"/>
<path fill-rule="evenodd" clip-rule="evenodd" d="M1050.9 1266.26C1025.23 1265.13 999.397 1258.92 971.746 1248.6C944.094 1238.31 919.18 1223.74 894.839 1209.61C871.248 1195.93 829.39 1161.58 800.565 1127.82C785.198 1109.81 764.142 1070.25 754.336 1037.48C744.114 1003.32 743.635 1000.62 740.419 981.97C738.641 971.627 734.965 945.247 741.598 952.569C750.799 962.729 759.722 985.943 803.403 1008.34C822.031 1017.89 858.939 1046.76 929.263 1048.02C945.885 1048.32 950.438 1023.5 961.064 1004.67C968.568 991.372 983.027 971.078 1001.43 955.268C1020.7 938.695 1033.76 934.375 1048.56 927.842C1083.05 912.612 1128.68 908.815 1190.27 924.518C1216.57 931.247 1238.46 933.177 1292.75 960.276C1347.05 987.387 1381.87 1041.66 1384.17 1059.36C1386.75 1079.06 1378.67 1072.14 1356.35 1053.37C1341.33 1040.74 1325.88 1035.61 1306.51 1026.64C1282.63 1015.59 1249.07 1007.64 1249.07 1007.64C1249.07 1007.64 1268.49 1037.04 1269.95 1082.79C1271.16 1120.14 1268.53 1136 1248.76 1178.75C1214.4 1252.91 1125.69 1269.54 1050.9 1266.26ZM1159.98 1033.85C1186.95 1062.87 1187.89 1113 1158.19 1143.44C1130.26 1172.02 1091.37 1171.7 1063.14 1148.21C1019.32 1111.72 1043.49 1062.29 1047.52 1051.16C1061.95 1011.5 1127.11 998.442 1159.98 1033.85Z" fill="#019393"/>
<path fill-rule="evenodd" clip-rule="evenodd" d="M380.04 1664.35C309.148 1591.4 254.104 1488.79 266.634 1392.3C274.913 1328.53 290.792 1269.75 303.574 1249.87C320.285 1223.87 328.262 1213.91 341.87 1200.45C376.395 1166.2 357.155 1183.23 401.436 1145.29C440.255 1112.06 437.197 1113.78 482.744 1079.73C574.584 1011.09 630.667 991.41 647.536 985.999C662.784 981.118 665.647 983.515 666.473 1001.89C667.034 1013.79 668.093 1026.37 668.844 1029.85C669.594 1033.33 673.024 1051.09 676.455 1069.32C679.898 1087.56 694.673 1127.38 709.29 1157.82C760.437 1264.45 958.179 1348.04 965.632 1351.26C973.061 1354.48 1004.01 1366.88 967.486 1368.07C611.352 1379.54 615.514 1379.1 556.492 1381.75C532.555 1382.82 521.992 1391.2 509.387 1403.48C489.983 1422.36 420.688 1508.4 421.072 1604.92C421.293 1659.4 428.639 1706.25 425.84 1706.25C423.059 1706.25 402.432 1687.4 380.04 1664.35ZM545.822 1116.25C584.888 1079.46 645.922 1128.56 613.805 1180.34C599.365 1203.65 567.622 1204.4 547.588 1187.4C531.476 1173.74 523.449 1137.28 545.822 1116.25Z" fill="#019393"/>
<path d="M671.898 1531.77C605.339 1532.83 470.343 1529.5 442.358 1525.12C393.411 1517.48 385.383 1515.75 393.96 1487.42C396.949 1477.65 408.86 1444.24 424.379 1416.99C436.676 1395.41 452.069 1377.9 461.288 1377.46C505.165 1375.36 807.532 1362.55 968.459 1355.9C1008.19 1354.25 992.983 1428.29 922.476 1479.37C901.515 1494.56 857.052 1513.88 827.332 1520.91C792.568 1529.15 749.032 1530.53 671.898 1531.77Z" fill="#019393"/>
<path d="M0 2423.41L1316.14 2423.44C1316.14 2423.44 1326.79 2360.83 1287.11 2302.45C1254.02 2253.77 1169.14 2184.34 1151.58 2171.6C1081.96 2121.05 987.9 2084.8 858.061 2065.35C724.104 2045.27 563.51 2056.81 458.548 2103.19C368.897 2142.8 308.991 2175.71 230.362 2228.25C151.651 2275.32 0 2423.41 0 2423.41Z" fill="#019393"/>
</svg>
